<?xml version="1.0" encoding="utf-8"?>
<!-- Generator: Adobe Illustrator 25.2.3, SVG Export Plug-In . SVG Version: 6.00 Build 0)  -->
<svg version="1.1" id="Layer_1" xmlns="http://www.w3.org/2000/svg" xmlns:xlink="http://www.w3.org/1999/xlink" x="0px" y="0px"
	 viewBox="0 0 500 100" style="enable-background:new 0 0 500 100;" xml:space="preserve">
<g>
	<path d="M229.23,7.69c0,0-6.14,2.38-13.27,10.04c-7.16,7.68-11.29,16.28-8.22,18.56c1.18,0.87,3.9,1.02,8.85-3.31
		c3.86-3.38,7.79-7.8,10.46-14.13C230.25,11.26,229.23,7.78,229.23,7.69 M268.28,21.47c-7.93-3.96-13.72-8.8-19.75-11.81
		c-5.75-2.88-9.47-4.08-14.12-3.48c-0.77,0.11-1.92,0.47-1.92,0.47s2.4,7.96-7.13,21.35c-9.65,13.56-18.41,13.48-20.89,9.73
		c-2.61-3.93,0.75-11.95,6.38-19.09c5.89-7.46,16.23-13.66,16.23-13.66s-3.3-1.96-11.4,2.51c-7.89,4.35-21.51,14.71-34.11,32.18
		c-12.59,17.48-15.11,27.1-16.93,34.67c-1.82,7.57-0.16,15.68,8.46,15.68c8.63,0,18.66-12.8,21.48-17.26
		c5.26-8.29,8.69-21.01,1.54-19.26c-3.53,0.86-6.38,4.67-8.18,8.33c-1.85,3.76-2.59,7.36-2.59,7.36s-2.98,1.04-6.98,3.96
		c-4.01,2.92-6.62,5.7-6.62,5.7s0.03-6.05,4.98-15.84c4.95-9.79,14.05-14.27,19.19-14.69c4.64-0.37,10.67,3.48,5.56,17.64
		c-5.11,14.17-20.21,31.34-36.07,31.56c-14.63,0.2-24.21-18-3.84-49.74c22.53-35.1,48.99-45.87,57.58-47.07
		c8.59-1.2,11.37,2.49,11.37,2.49s7.2-3.23,16.32-2.62c10.48,0.69,18.6,7.92,29.29,13C273.32,16.22,270.66,18.93,268.28,21.47
		 M315.37,9.66c-7.26,4.54-17.32,8.66-26.98,7.75c-2.44,2.47-5.06,5.31-7.69,8.42c16.76,3.23,31.43-6.88,39.23-15.49
		c4.88-5.37,7.28-10.17,7.28-10.17S322.56,5.16,315.37,9.66 M293.07,55.65c0.21-0.36,0.31-0.68,0.31-0.68s-0.19-1.38-1.53-1.43
		c-1.59-0.07-3.78,0.22-9.48,6.38c-5.68,6.13-9.14,11.45-12.13,16.77c-3.27,5.82-4.59,10.15-2.71,11.27
		c0.53,0.31,1.33,0.35,1.97,0.2c1.28-0.3,2.71-1.46,4.91-3.93c1.03-1.15,2.17-2.8,3.53-4.62C281.7,74.59,291.19,58.82,293.07,55.65
		 M233.77,62.34c0.95-2.43,2.16-7.19-0.36-9.06c-2.71-1.99-9.61,2.67-9.65,7.45c-0.04,4.89,4.86,7.1,6.04,7.42
		c0.67,0.18,0.9,0.15,1.23-0.37C231.24,67.43,232.82,64.77,233.77,62.34 M228.55,71.23c-0.18-0.06-2.42-1.06-4.74-2.95
		c-2.31-1.88-3.49-4.05-3.58-4.21c-0.09-0.16-0.19-0.04-0.3,0.1c-0.1,0.14-0.52,0.5-4.21,5.77c-3.69,5.28-9.33,16.15-4.21,18
		c3.28,1.18,8.74-4.41,11.72-8.11c2.77-3.44,5.35-7.82,5.49-8.14C228.87,71.38,228.74,71.3,228.55,71.23 M286.6,83.81
		c-1.39,2.17-2.97,6.32,1.62,3.73c5.59-3.15,13.56-14.91,13.56-14.91l3.6,0c0,0-4.75,7.31-10.95,13.99
		c-5.67,6.11-12.58,11.67-17.45,11.12c-5.68-0.64-3.9-7.92-3.9-7.92s-8.16,8.44-13.77,7.83c-7.6-0.82-5.28-9.98-5.28-9.98
		s-8.6,10.3-14.45,9.97c-9.18-0.51-6.87-11.43-4.32-19.07c1.37-4.09,2.64-7.32,2.64-7.32s-0.91,0.23-2.86,0.51
		c-1.02,0.14-2.89,0.24-2.89,0.24s-3.82,6.57-6.88,10.53c-3.06,3.96-16.06,17.56-23.72,14.84c-7.07-2.52-4.74-13.07-0.61-21.45
		c6.01-12.22,22.92-29.78,32.66-27.48c10.11,2.39,0.23,20.35,0.23,20.35s0,0.07,0.1,0.11c0.2,0.08,0.73,0.13,1.95-0.1
		c1.94-0.36,3.7-1.07,3.7-1.07S249.75,47,260.98,33.45c11.22-13.56,33.62-36.9,42.41-31.25c2.15,1.39,1.17,6.17-1.72,11.98
		c-1.28,0.39-2.61,0.74-3.97,1.01c1.93-3.42,3.22-6.31,3.6-8.32c1.32-7-15.47,7.76-27.47,23.65c-12,15.89-19.21,30.28-19.21,30.28
		s2.42-1.33,6.19-4.29c3.94-3.09,9.36-7.93,15.24-13.86c3.96-3.98,8.62-8.99,12.97-14.58c1.3-0.06,2.57-0.19,3.82-0.38
		c-4.86,6.37-9.97,12.19-14.31,16.47c-4.77,4.71-9.96,9.79-14.47,13.48c-7.16,5.87-12.69,9.19-12.69,9.19s-10.52,20.6-4.81,21.93
		c3.36,0.78,9.99-9.16,9.99-9.16s8.64-12.85,13.86-18.63c7.11-7.88,13.23-12.42,19.35-12.52c3.56-0.06,5.67,3.64,5.67,3.64
		l1.68-2.53l10.32,0C307.42,49.56,288.14,81.41,286.6,83.81 M315.37,9.66c-7.26,4.54-17.32,8.66-26.98,7.75
		c-2.44,2.47-5.06,5.31-7.69,8.42c16.76,3.23,31.43-6.88,39.23-15.49c4.88-5.37,7.28-10.17,7.28-10.17S322.56,5.16,315.37,9.66
		 M170.44,25.3l-9.82,0l-5.55,8.74l9.82,0L170.44,25.3z M123.95,55.53c4.18-5.58,15.71-25.11,15.71-25.11s-0.19-1.38-1.53-1.43
		c-1.59-0.07-4.23,0.45-9.53,6.89c-5.3,6.44-9.38,11.57-12.37,16.9c-3.27,5.82-4.71,9.92-2.83,11.04c0.53,0.31,1.32,0.35,1.97,0.2
		c1.23-0.3,2.83-1.49,5.02-3.96C121.42,58.9,122.59,57.35,123.95,55.53 M71.29,29.11c-2.71-2-9.61,2.67-9.65,7.44
		c-0.04,4.9,6.23,6.29,7.04,6.33c0,0,0.71,0.19,0.99-0.39c0.18-0.36,1.03-1.9,1.99-4.33C72.6,35.74,73.81,30.97,71.29,29.11
		 M67.19,45.95c-0.18-0.06-2.78-0.79-5.32-2.38c-2.54-1.58-3.71-3.93-3.8-4.1c-0.09-0.16-0.2-0.04-0.3,0.1
		c-0.11,0.14-0.65,0.82-4.34,6.09c-3.69,5.27-9.16,16.07-4.04,17.92c3.28,1.18,8.79-4.42,11.77-8.13c2.76-3.44,6.06-8.74,6.2-9.05
		C67.5,46.09,67.37,46.01,67.19,45.95 M147.4,49.21l3.6,0c0,0-18.02,25.37-28.21,24.21c-5.68-0.64-4-7.48-4-7.48s-8,9.11-15.31,7.28
		c-6.65-1.66-2.36-12.43-2.36-12.43c-0.75,0.29-15.15,16.1-25.25,12.31c-10.58-3.97-5.09-17.21-3.07-21.19
		c1.7-3.35,3.59-6.62,3.59-6.62s-1.62,0.45-2.63,0.68c-1,0.22-2.54,0.52-2.54,0.52s-5.01,7.92-8.06,11.87
		c-3.06,3.96-16.06,17.55-23.72,14.84c-7.66-2.72-5.76-13.15-1.45-21.44c6.98-13.45,23.54-29.97,33.51-27.49
		c10.07,2.51,1.73,18.43,1.73,18.43s2,0.25,6.81-2.94c6.93-4.59,16.04-16.96,25.93-15.51c4.64,0.68,8.96,5.32,3.05,14.13
		c-1.9,2.83-5.07,5.36-7.51,2.86c-1.51-1.55-0.19-4.39,1.4-6.33c2.25-2.75,5.34-2.37,5.34-2.37s1.63-3.65-2.52-3.58
		c-3.36,0.06-11.87,7.69-16.68,15.41c-4.41,7.08-11.08,19.14-4.38,21.77c6.15,2.41,17.84-11.1,23.26-18.19
		c5.42-7.08,17.75-23.14,28.09-23.79c3.56-0.23,5.69,2.94,5.69,2.94l1.2-1.85l10.33,0.01c0,0-19.5,31.69-21.02,34.09
		c-1.2,1.88-2.79,6.1,1.62,3.73C138.23,60.7,147.4,49.21,147.4,49.21 M141.75,100c-7.82-5.37-17.36-7.73-26.01-7.4
		c-8.76,0.34-12.69,6.7-12.69,6.7c-3.95-6.71-11.76-10.84-23.82-10.74c-19.49,0.21-38.84,8.97-54.16,8.96
		c-14.71-0.01-25.41-9-25.06-24.98C0.65,44.54,24.95,19.3,43.12,7.95c10.44-6.53,19.18-8.46,24.9-7.84
		c4.17,0.45,9.19,5.15,6.02,12.06c-4.65,10.13-11.07,9.28-10.83,4.44c0.14-3.15,2.28-5.13,3.9-6.21c1.03-0.69,2.84-0.89,3.79-0.91
		c0.92-0.76,1.62-6.3-5.86-4.47C57.55,6.85,48.55,14,39.96,23.23c-8.59,9.22-21.95,26.71-25.26,45.04
		c-1.54,8.51-0.52,24.01,20.16,23.84c17.53-0.14,43.43-11.38,67.21-11.17c9.23,0.08,17.26,2.51,23.52,6.28
		C131.77,90.93,139.14,96.32,141.75,100"/>
	<g>
		<path d="M372.91,80.1c1.36,1.81,2.04,3.91,2.04,6.31c0,2.14-0.54,4.05-1.62,5.72c-1.08,1.68-2.66,3-4.74,3.96
			c-2.08,0.96-4.56,1.44-7.44,1.44h-21.52V57.7h19.71c2.57,0,4.79,0.45,6.64,1.36c1.85,0.9,3.26,2.14,4.23,3.71
			c0.97,1.57,1.45,3.33,1.45,5.28c0,1.7-0.41,3.28-1.22,4.76c-0.81,1.48-2.09,2.66-3.83,3.54C369.44,77.04,371.54,78.3,372.91,80.1z
			 M345.25,62.46v12.39h13.69c2.42,0,4.21-0.6,5.37-1.8c1.15-1.2,1.73-2.68,1.73-4.45c0-1.84-0.63-3.33-1.9-4.45
			c-1.27-1.12-3.1-1.69-5.48-1.69H345.25z M366.92,90.97c1.49-1.2,2.24-2.83,2.24-4.9c0-1.99-0.7-3.58-2.1-4.76
			s-3.35-1.77-5.85-1.77h-15.96v13.22h15.45C363.35,92.77,365.42,92.17,366.92,90.97z"/>
		<path d="M401.02,67.27v4.98c-1.06-0.22-2.12-0.33-3.18-0.33c-2.99,0-5.44,0.78-7.35,2.35c-1.91,1.57-2.87,3.77-2.87,6.61v16.65
			h-5.45V67.38h5.17v4.7c1.14-1.77,2.68-3.07,4.63-3.9c1.95-0.83,3.93-1.24,5.93-1.24C399.07,66.94,400.11,67.05,401.02,67.27z"/>
		<path d="M436.34,92.88v4.43c-0.68,0.29-1.57,0.44-2.67,0.44c-1.7,0-3.18-0.42-4.43-1.27s-1.99-2.08-2.21-3.71
			c-1.25,1.77-2.94,3.12-5.08,4.04c-2.14,0.92-4.48,1.38-7.01,1.38c-3.45,0-6.33-0.81-8.66-2.43c-2.33-1.62-3.49-3.91-3.49-6.86
			c0-3.02,1.33-5.39,4-7.11c2.67-1.71,6.63-2.57,11.9-2.57h8.18v-0.39c0-2.32-0.8-4.13-2.41-5.42c-1.61-1.29-3.78-1.94-6.5-1.94
			c-1.74,0-3.48,0.28-5.22,0.83c-1.74,0.55-3.26,1.35-4.54,2.38l-3.01-3.87c1.63-1.36,3.6-2.39,5.91-3.07
			c2.31-0.68,4.67-1.02,7.1-1.02c4.32,0,7.73,1.05,10.25,3.15c2.52,2.1,3.78,5,3.78,8.68v12.17c0,1.62,0.85,2.43,2.56,2.43
			C435.36,93.16,435.89,93.07,436.34,92.88z M423.14,91.22c2.25-1.58,3.49-4.13,3.72-7.63h-8.06c-7.04,0-10.56,1.71-10.56,5.15
			c0,1.51,0.65,2.7,1.96,3.57c1.31,0.87,3.04,1.3,5.2,1.3C418.3,93.6,420.88,92.81,423.14,91.22z"/>
		<path d="M447.3,92.27c2.16,0.77,4.39,1.16,6.7,1.16c2.39,0,4.3-0.41,5.74-1.24c1.44-0.83,2.16-1.91,2.16-3.24
			c0-0.96-0.39-1.71-1.16-2.27c-0.78-0.55-1.92-0.96-3.44-1.22l-8.23-1.44c-3.03-0.55-5.28-1.52-6.76-2.9
			c-1.48-1.38-2.21-3.09-2.21-5.12c0-1.81,0.54-3.41,1.62-4.81c1.08-1.4,2.64-2.49,4.68-3.26c2.04-0.77,4.43-1.16,7.16-1.16
			c2.35,0,4.67,0.31,6.96,0.94c2.29,0.63,4.4,1.66,6.33,3.1l-2.9,3.93c-1.33-1.03-2.95-1.86-4.88-2.49
			c-1.93-0.63-3.88-0.94-5.85-0.94c-2.2,0-4,0.4-5.42,1.19c-1.42,0.79-2.13,1.83-2.13,3.13c0,0.88,0.41,1.6,1.22,2.13
			c0.81,0.53,2.15,0.97,4,1.3l7.67,1.33c3.03,0.55,5.27,1.53,6.73,2.93c1.46,1.4,2.19,3.14,2.19,5.2c0,1.88-0.56,3.54-1.68,4.98
			c-1.12,1.44-2.7,2.56-4.74,3.37c-2.04,0.81-4.39,1.22-7.04,1.22c-2.69,0-5.42-0.41-8.21-1.22c-2.78-0.81-5.05-1.92-6.79-3.32
			l2.84-4.15C443.33,90.54,445.14,91.5,447.3,92.27z"/>
		<path d="M474.73,61.9c-0.68-0.63-1.02-1.42-1.02-2.38c0-0.96,0.34-1.75,1.02-2.38c0.68-0.63,1.53-0.94,2.56-0.94
			c1.02,0,1.87,0.31,2.56,0.94c0.68,0.63,1.02,1.42,1.02,2.38c0,0.96-0.34,1.75-1.02,2.38c-0.68,0.63-1.53,0.94-2.56,0.94
			C476.26,62.84,475.41,62.53,474.73,61.9z M474.56,67.38h5.45v30.15h-5.45V67.38z"/>
		<path d="M494.49,55.93v34.3c0,0.96,0.27,1.67,0.82,2.13s1.28,0.69,2.19,0.69c0.76,0,1.59-0.17,2.5-0.5v4.81
			c-1.02,0.41-2.2,0.61-3.52,0.61c-2.27,0-4.08-0.6-5.42-1.8c-1.35-1.2-2.02-2.83-2.02-4.9V55.93H494.49z"/>
	</g>
</g>
</svg>
